<svg xmlns="http://www.w3.org/2000/svg" id="Layer_1" data-name="Layer 1" viewBox="0 0 260.01 260.01"><defs><style>.cls-1,.cls-3{fill:#dce2e8}.cls-2{fill:#06b3e3}.cls-2,.cls-3,.cls-4,.cls-5,.cls-6{stroke:#2e3e49;stroke-linecap:round;stroke-linejoin:round;stroke-width:3.5px}.cls-4{fill:none}.cls-5{fill:#fff}.cls-6{fill:#ebc81b}</style></defs><title>book</title><circle cx="130" cy="130" r="130" class="cls-1"/><rect width="224.99" height="178.49" x="17.56" y="60.81" class="cls-2"/><rect width="224.99" height="178.49" x="17.56" y="50.81" class="cls-2"/><path d="M590.84,331l-10,12.33V505.52h82.33a13.67,13.67,0,1,1,27.33,0" class="cls-3" transform="translate(-546.84 -291.3)"/><line x1="44" x2="34" y1="186.72" y2="214.22" class="cls-4"/><path d="M762.68,331l10,12.33V505.52H690.34a13.67,13.67,0,1,0-27.33,0" class="cls-3" transform="translate(-546.84 -291.3)"/><line x1="215.84" x2="225.84" y1="186.72" y2="214.22" class="cls-4"/><path d="M762.84,478l-0.65.14c-14.77,3.21-62.53-.14-68.87-0.14h-1.48c-8.28,0-15,4.72-15,13V346h0a15,15,0,0,1,15-15h1.48c6.33,0,54.09,3.35,68.87.14l0.65-.14V478Z" class="cls-5" transform="translate(-546.84 -291.3)"/><path d="M590.84,478l0.65,0.14c14.77,3.21,62.53-.14,68.87-0.14h1.48c8.28,0,15,4.72,15,13V346h0a15,15,0,0,0-15-15h-1.48c-6.33,0-54.09,3.35-68.87.14l-0.65-.14V478Z" class="cls-5" transform="translate(-546.84 -291.3)"/><line x1="93.76" x2="115.17" y1="77.5" y2="77.5" class="cls-2"/><line x1="93.76" x2="115.17" y1="62.5" y2="62.5" class="cls-2"/><line x1="93.76" x2="115.17" y1="92.5" y2="92.5" class="cls-2"/><line x1="58.76" x2="115.17" y1="107.5" y2="107.5" class="cls-2"/><line x1="58.76" x2="115.17" y1="122.5" y2="122.5" class="cls-2"/><line x1="58.76" x2="115.17" y1="137.5" y2="137.5" class="cls-2"/><line x1="58.76" x2="115.17" y1="152.5" y2="152.5" class="cls-2"/><line x1="58.76" x2="115.17" y1="167.5" y2="167.5" class="cls-2"/><polyline points="58.76 92.5 69.67 62.5 80.67 92.5" class="cls-4"/><line x1="61.81" x2="77.6" y1="84.12" y2="84.12" class="cls-4"/><line x1="180.67" x2="202.08" y1="77.5" y2="77.5" class="cls-2"/><line x1="145.67" x2="202.08" y1="62.5" y2="62.5" class="cls-2"/><line x1="145.67" x2="202.08" y1="167.5" y2="167.5" class="cls-2"/><line x1="180.67" x2="202.08" y1="92.5" y2="92.5" class="cls-2"/><line x1="180.67" x2="202.08" y1="107.5" y2="107.5" class="cls-2"/><line x1="145.67" x2="167.08" y1="122.5" y2="122.5" class="cls-2"/><line x1="145.67" x2="167.08" y1="137.5" y2="137.5" class="cls-2"/><line x1="145.67" x2="167.08" y1="152.5" y2="152.5" class="cls-2"/><rect width="21.41" height="31.78" x="180.67" y="121.72" class="cls-6"/><rect width="21.41" height="31.78" x="145.67" y="76.61" class="cls-6"/><line x1="130" x2="130" y1="199.72" y2="239.3" class="cls-2"/></svg>