<svg xmlns="http://www.w3.org/2000/svg" id="Layer_1" data-name="Layer 1" viewBox="0 0 274.01 289.6"><defs><style>.cls-1{fill:#dce2e8}.cls-2,.cls-4,.cls-7{fill:#fff}.cls-11,.cls-3{fill:#2e3e49}.cls-10,.cls-4,.cls-5,.cls-7,.cls-8{stroke:#2e3e49}.cls-10,.cls-11,.cls-4,.cls-5{stroke-linecap:round;stroke-linejoin:round}.cls-10,.cls-11,.cls-4,.cls-5,.cls-7,.cls-8{stroke-width:3.5px}.cls-5{fill:none}.cls-10,.cls-6,.cls-8{fill:#f15e3e}.cls-7,.cls-8{stroke-miterlimit:10}.cls-9{fill:#bc462c}.cls-11{stroke:#fafbfc}</style></defs><title>bridge</title><circle cx="136.81" cy="159.59" r="130" class="cls-1"/><path d="M743.63,494.47a53.74,53.74,0,1,1,53.74-53.74A53.8,53.8,0,0,1,743.63,494.47Z" class="cls-2" transform="translate(-555.99 -315.9)"/><path d="M743.63,388.75a52,52,0,1,1-52,52,52,52,0,0,1,52-52m0-3.5a55.49,55.49,0,1,0,55.49,55.49,55.55,55.55,0,0,0-55.49-55.49h0Z" class="cls-3" transform="translate(-555.99 -315.9)"/><line x1="166.97" x2="166.97" y1="1.75" y2="14.58" class="cls-4"/><line x1="101.97" x2="101.97" y1="1.75" y2="16.08" class="cls-5"/><line x1="43.13" x2="43.13" y1="131.33" y2="167.58" class="cls-5"/><line x1="31.13" x2="31.13" y1="142.48" y2="167.58" class="cls-5"/><line x1="18.13" x2="18.13" y1="148.58" y2="167.58" class="cls-5"/><rect width="15.91" height="101.01" x="93.76" y="9.58" class="cls-6"/><path d="M681.22,532" class="cls-5" transform="translate(-555.99 -315.9)"/><path d="M681.86,541" class="cls-5" transform="translate(-555.99 -315.9)"/><rect width="13.41" height="66.01" x="94.76" y="110.58" class="cls-7"/><rect width="20.91" height="58.01" x="90.76" y="177.08" class="cls-8"/><rect width="20.91" height="20.01" x="90.63" y="190.08" class="cls-9"/><rect width="20.91" height="58.01" x="90.76" y="177.08" class="cls-5"/><path d="M649.76,347s-8.86,92.51-92,125.49" class="cls-5" transform="translate(-555.99 -315.9)"/><line x1="81.13" x2="81.13" y1="76.63" y2="177.08" class="cls-5"/><line x1="69.13" x2="69.13" y1="100.13" y2="177.08" class="cls-5"/><line x1="56.13" x2="56.13" y1="119.63" y2="177.08" class="cls-5"/><line x1="121.63" x2="121.63" y1="72.63" y2="177.08" class="cls-5"/><line x1="134.13" x2="134.13" y1="106.13" y2="177.08" class="cls-5"/><line x1="146.63" x2="146.63" y1="119.63" y2="177.08" class="cls-5"/><rect width="19.41" height="66.51" x="91.76" y="110.58" class="cls-10"/><line x1="109.67" x2="92.17" y1="138.58" y2="138.58" class="cls-5"/><rect width="15.91" height="101.01" x="93.76" y="9.58" class="cls-5"/><line x1="107.17" x2="93.67" y1="88.08" y2="88.08" class="cls-5"/><line x1="107.17" x2="93.67" y1="37.08" y2="37.08" class="cls-5"/><path d="M665.46,347s18.62,137,162.8,137" class="cls-5" transform="translate(-555.99 -315.9)"/><path d="M718.2,374.43V360.95H704.71a13.49,13.49,0,0,1,13.49,13.49h0Z" class="cls-4" transform="translate(-555.99 -315.9)"/><path d="M718.2,330.55V344H704.71a13.49,13.49,0,0,0,13.49-13.49h0Z" class="cls-4" transform="translate(-555.99 -315.9)"/><path d="M718.2,425.88V412.39H704.71a13.49,13.49,0,0,1,13.49,13.49h0Z" class="cls-4" transform="translate(-555.99 -315.9)"/><path d="M718.2,382v13.49H704.71A13.49,13.49,0,0,0,718.2,382h0Z" class="cls-4" transform="translate(-555.99 -315.9)"/><rect width="61.5" height="16.67" x="101.97" y="28.08" class="cls-10"/><path d="M657.88,432v13.49h13.49A13.49,13.49,0,0,1,657.88,432h0Z" class="cls-10" transform="translate(-555.99 -315.9)"/><path d="M657.88,476.38V462.89h13.49a13.49,13.49,0,0,0-13.49,13.49h0Z" class="cls-10" transform="translate(-555.99 -315.9)"/><rect width="61.5" height="16.67" x="101.97" y="130.08" class="cls-10"/><path d="M718.2,476.38V462.89H704.71a13.49,13.49,0,0,1,13.49,13.49h0Z" class="cls-4" transform="translate(-555.99 -315.9)"/><path d="M718.2,432v13.49H704.71A13.49,13.49,0,0,0,718.2,432h0Z" class="cls-4" transform="translate(-555.99 -315.9)"/><rect width="61.5" height="16.67" x="101.97" y="79.58" class="cls-10"/><path d="M746.72,532" class="cls-5" transform="translate(-555.99 -315.9)"/><path d="M747.36,541" class="cls-5" transform="translate(-555.99 -315.9)"/><rect width="17.91" height="66.01" x="157.76" y="110.58" class="cls-6"/><rect width="20.91" height="58.01" x="156.26" y="177.08" class="cls-6"/><rect width="20.91" height="20.01" x="156.13" y="190.08" class="cls-9"/><rect width="20.91" height="58.01" x="156.26" y="177.08" class="cls-5"/><line x1="175.67" x2="158.17" y1="138.58" y2="138.58" class="cls-5"/><rect width="269.99" height="16" x="1.75" y="177.08" class="cls-6"/><line x1="1.75" x2="271.74" y1="177.08" y2="177.08" class="cls-4"/><line x1="271.74" x2="1.75" y1="192.58" y2="192.58" class="cls-4"/><path d="M720.26,347S702.14,484,558,484" class="cls-5" transform="translate(-555.99 -315.9)"/><path d="M726,347s13.72,113.4,101.77,133.3" class="cls-5" transform="translate(-555.99 -315.9)"/><line x1="146.63" x2="146.63" y1="83.13" y2="177.08" class="cls-5"/><line x1="134.13" x2="134.13" y1="103.63" y2="177.08" class="cls-5"/><line x1="121.63" x2="121.63" y1="123.13" y2="177.08" class="cls-5"/><line x1="187.13" x2="187.13" y1="89.13" y2="177.08" class="cls-5"/><line x1="199.63" x2="199.63" y1="111.13" y2="177.08" class="cls-5"/><line x1="212.13" x2="212.13" y1="129.13" y2="177.08" class="cls-5"/><line x1="212.13" x2="212.13" y1="129.13" y2="177.08" class="cls-5"/><line x1="224.63" x2="224.63" y1="140.61" y2="177.08" class="cls-5"/><line x1="237.13" x2="237.13" y1="150.11" y2="177.08" class="cls-5"/><line x1="249.63" x2="249.63" y1="157.83" y2="177.08" class="cls-5"/><line x1="262.13" x2="262.13" y1="162.58" y2="177.08" class="cls-5"/><line x1="81.13" x2="81.13" y1="153.58" y2="177.08" class="cls-5"/><line x1="101.63" x2="101.63" y1="138.58" y2="177.08" class="cls-5"/><line x1="69.13" x2="69.13" y1="158.66" y2="177.08" class="cls-5"/><line x1="56.13" x2="56.13" y1="162.58" y2="177.08" class="cls-5"/><line x1="43.13" x2="43.13" y1="165.33" y2="177.08" class="cls-5"/><line x1="31.13" x2="31.13" y1="166.98" y2="177.08" class="cls-5"/><line x1="18.13" x2="18.13" y1="168.08" y2="177.08" class="cls-5"/><rect width="19.41" height="66.51" x="157.26" y="110.58" class="cls-5"/><rect width="15.41" height="101.01" x="159.26" y="9.58" class="cls-10"/><line x1="1.75" x2="271.74" y1="183.58" y2="183.58" class="cls-4"/><path d="M658,382v13.49h13.49A13.49,13.49,0,0,1,658,382h0Z" class="cls-10" transform="translate(-555.99 -315.9)"/><path d="M658,425.88V412.39h13.49A13.49,13.49,0,0,0,658,425.88h0Z" class="cls-10" transform="translate(-555.99 -315.9)"/><path d="M658,330.55V344h13.49A13.49,13.49,0,0,1,658,330.55h0Z" class="cls-10" transform="translate(-555.99 -315.9)"/><path d="M658,374.43V360.95h13.49A13.49,13.49,0,0,0,658,374.43h0Z" class="cls-10" transform="translate(-555.99 -315.9)"/><line x1="173.67" x2="160.17" y1="88.08" y2="88.08" class="cls-5"/><line x1="171.67" x2="162.17" y1="62.08" y2="62.08" class="cls-5"/><line x1="106.67" x2="97.17" y1="62.08" y2="62.08" class="cls-5"/><line x1="173.67" x2="160.17" y1="36.08" y2="36.08" class="cls-5"/><line x1="101.97" x2="101.97" y1="58.53" y2="66.1" class="cls-5"/><line x1="150.98" x2="166.74" y1="255.1" y2="255.1" class="cls-11"/><line x1="105.98" x2="136.74" y1="255.1" y2="255.1" class="cls-11"/><line x1="224.88" x2="48.75" y1="235.09" y2="235.09" class="cls-11"/><line x1="125.23" x2="58.42" y1="245.09" y2="245.09" class="cls-11"/><line x1="155.23" x2="88.52" y1="265.09" y2="265.09" class="cls-11"/><line x1="215.21" x2="150.99" y1="245.09" y2="245.09" class="cls-11"/><line x1="202.67" x2="180.99" y1="255.09" y2="255.09" class="cls-11"/><line x1="185.1" x2="165.99" y1="265.09" y2="265.09" class="cls-11"/><line x1="147.54" x2="126.08" y1="275.09" y2="275.09" class="cls-11"/><line x1="91.74" x2="70.96" y1="255.09" y2="255.09" class="cls-11"/></svg>